<svg xmlns="http://www.w3.org/2000/svg" xmlns:xlink="http://www.w3.org/1999/xlink" width="500" zoomAndPan="magnify" viewBox="0 0 375 374.999991" height="500" preserveAspectRatio="xMidYMid meet" version="1.0"><defs><clipPath id="24309d3142"><path d="M 21.5 30.261719 L 354.042969 30.261719 L 354.042969 375 L 21.5 375 Z M 21.5 30.261719 " clip-rule="nonzero"/></clipPath><clipPath id="fbb003ecaf"><path d="M 187.773438 30.261719 C 95.941406 30.261719 21.5 109.464844 21.5 207.164062 C 21.5 304.867188 95.941406 384.070312 187.773438 384.070312 C 279.601562 384.070312 354.042969 304.867188 354.042969 207.164062 C 354.042969 109.464844 279.601562 30.261719 187.773438 30.261719 Z M 187.773438 30.261719 " clip-rule="nonzero"/></clipPath><clipPath id="b83e8143ed"><path d="M 0 7.5 L 375 7.5 L 375 375 L 0 375 Z M 0 7.5 " clip-rule="nonzero"/></clipPath><clipPath id="5f70651664"><path d="M 211.320312 158.335938 L 255.511719 158.335938 L 255.511719 202.523438 L 211.320312 202.523438 Z M 211.320312 158.335938 " clip-rule="nonzero"/></clipPath><clipPath id="cc708810ea"><path d="M 233.417969 158.335938 C 221.214844 158.335938 211.320312 168.226562 211.320312 180.429688 C 211.320312 192.632812 221.214844 202.523438 233.417969 202.523438 C 245.617188 202.523438 255.511719 192.632812 255.511719 180.429688 C 255.511719 168.226562 245.617188 158.335938 233.417969 158.335938 Z M 233.417969 158.335938 " clip-rule="nonzero"/></clipPath><clipPath id="979f6dc3ac"><path d="M 117.890625 158.335938 L 162.082031 158.335938 L 162.082031 202.523438 L 117.890625 202.523438 Z M 117.890625 158.335938 " clip-rule="nonzero"/></clipPath><clipPath id="508ab8fe14"><path d="M 139.984375 158.335938 C 127.78125 158.335938 117.890625 168.226562 117.890625 180.429688 C 117.890625 192.632812 127.78125 202.523438 139.984375 202.523438 C 152.1875 202.523438 162.082031 192.632812 162.082031 180.429688 C 162.082031 168.226562 152.1875 158.335938 139.984375 158.335938 Z M 139.984375 158.335938 " clip-rule="nonzero"/></clipPath></defs><g clip-path="url(#24309d3142)"><g clip-path="url(#fbb003ecaf)"><path fill="#24292f" d="M 21.5 30.261719 L 354.042969 30.261719 L 354.042969 383.589844 L 21.5 383.589844 Z M 21.5 30.261719 " fill-opacity="1" fill-rule="nonzero"/></g></g><g clip-path="url(#b83e8143ed)"><path fill="#ffffff" d="M 187.667969 7.5 C 84.039062 7.5 0.265625 91.890625 0.265625 196.292969 C 0.265625 279.746094 53.941406 350.390625 128.40625 375.394531 C 137.714844 377.273438 141.125 371.332031 141.125 366.332031 C 141.125 361.957031 140.816406 346.953125 140.816406 331.320312 C 88.6875 342.578125 77.832031 308.816406 77.832031 308.816406 C 69.453125 286.9375 57.042969 281.3125 57.042969 281.3125 C 39.980469 269.746094 58.285156 269.746094 58.285156 269.746094 C 77.210938 271 87.140625 289.125 87.140625 289.125 C 103.894531 317.882812 130.886719 309.757812 141.746094 304.753906 C 143.296875 292.5625 148.265625 284.125 153.539062 279.4375 C 111.960938 275.058594 68.214844 258.808594 68.214844 186.289062 C 68.214844 165.660156 75.65625 148.78125 87.449219 135.65625 C 85.589844 130.96875 79.070312 111.585938 89.3125 85.640625 C 89.3125 85.640625 105.136719 80.640625 140.8125 105.019531 C 156.15625 100.871094 171.773438 98.785156 187.667969 98.769531 C 203.488281 98.769531 219.621094 100.957031 234.515625 105.019531 C 270.195312 80.640625 286.019531 85.640625 286.019531 85.640625 C 296.261719 111.585938 289.742188 130.96875 287.878906 135.65625 C 299.984375 148.78125 307.117188 165.660156 307.117188 186.289062 C 307.117188 258.808594 263.371094 274.746094 221.484375 279.4375 C 228.3125 285.375 234.203125 296.625 234.203125 314.445312 C 234.203125 339.761719 233.898438 360.082031 233.898438 366.328125 C 233.898438 371.332031 237.3125 377.273438 246.617188 375.398438 C 321.082031 350.386719 374.757812 279.746094 374.757812 196.292969 C 375.0625 91.890625 290.984375 7.5 187.667969 7.5 Z M 187.667969 7.5 " fill-opacity="1" fill-rule="evenodd"/></g><g clip-path="url(#5f70651664)"><g clip-path="url(#cc708810ea)"><path fill="#ffffff" d="M 211.320312 158.335938 L 255.511719 158.335938 L 255.511719 202.523438 L 211.320312 202.523438 Z M 211.320312 158.335938 " fill-opacity="1" fill-rule="nonzero"/></g></g><g clip-path="url(#979f6dc3ac)"><g clip-path="url(#508ab8fe14)"><path fill="#ffffff" d="M 117.890625 158.335938 L 162.082031 158.335938 L 162.082031 202.523438 L 117.890625 202.523438 Z M 117.890625 158.335938 " fill-opacity="1" fill-rule="nonzero"/></g></g></svg>