<svg xmlns="http://www.w3.org/2000/svg" xmlns:xlink="http://www.w3.org/1999/xlink" width="500" zoomAndPan="magnify" viewBox="0 0 375 374.999991" height="500" preserveAspectRatio="xMidYMid meet" version="1.0"><defs><clipPath id="3b126609de"><path d="M 0.75 4.125 L 374.25 4.125 L 374.25 375 L 0.75 375 Z M 0.75 4.125 " clip-rule="nonzero"/></clipPath><clipPath id="01dfedfc93"><path d="M 187.5 4.125 C 84.359375 4.125 0.75 88.574219 0.75 192.75 C 0.75 296.925781 84.359375 381.375 187.5 381.375 C 290.640625 381.375 374.25 296.925781 374.25 192.75 C 374.25 88.574219 290.640625 4.125 187.5 4.125 Z M 187.5 4.125 " clip-rule="nonzero"/></clipPath><clipPath id="473ee149b5"><path d="M 0 4.089844 L 375 4.089844 L 375 372.339844 L 0 372.339844 Z M 0 4.089844 " clip-rule="nonzero"/></clipPath><clipPath id="6514eb48bd"><path d="M 211.320312 158.335938 L 255.511719 158.335938 L 255.511719 202.523438 L 211.320312 202.523438 Z M 211.320312 158.335938 " clip-rule="nonzero"/></clipPath><clipPath id="a7459d76a2"><path d="M 233.417969 158.335938 C 221.214844 158.335938 211.320312 168.226562 211.320312 180.429688 C 211.320312 192.632812 221.214844 202.523438 233.417969 202.523438 C 245.617188 202.523438 255.511719 192.632812 255.511719 180.429688 C 255.511719 168.226562 245.617188 158.335938 233.417969 158.335938 Z M 233.417969 158.335938 " clip-rule="nonzero"/></clipPath><clipPath id="bc76ccf402"><path d="M 117.890625 158.335938 L 162.082031 158.335938 L 162.082031 202.523438 L 117.890625 202.523438 Z M 117.890625 158.335938 " clip-rule="nonzero"/></clipPath><clipPath id="94a9af80f3"><path d="M 139.984375 158.335938 C 127.78125 158.335938 117.890625 168.226562 117.890625 180.429688 C 117.890625 192.632812 127.78125 202.523438 139.984375 202.523438 C 152.1875 202.523438 162.082031 192.632812 162.082031 180.429688 C 162.082031 168.226562 152.1875 158.335938 139.984375 158.335938 Z M 139.984375 158.335938 " clip-rule="nonzero"/></clipPath></defs><g clip-path="url(#3b126609de)"><g clip-path="url(#01dfedfc93)"><path fill="#ffffff" d="M 0.75 4.125 L 374.25 4.125 L 374.25 382 L 0.75 382 Z M 0.75 4.125 " fill-opacity="1" fill-rule="nonzero"/></g></g><g clip-path="url(#473ee149b5)"><path fill="#24292f" d="M 187.691406 4.089844 C 84.050781 4.089844 0.265625 88.480469 0.265625 192.882812 C 0.265625 276.339844 53.949219 346.980469 128.421875 371.984375 C 137.730469 373.863281 141.144531 367.921875 141.144531 362.921875 C 141.144531 358.546875 140.835938 343.542969 140.835938 327.914062 C 88.699219 339.167969 77.84375 305.40625 77.84375 305.40625 C 69.464844 283.527344 57.046875 277.902344 57.046875 277.902344 C 39.984375 266.339844 58.292969 266.339844 58.292969 266.339844 C 77.21875 267.589844 87.152344 285.71875 87.152344 285.71875 C 103.90625 314.472656 130.902344 306.347656 141.765625 301.34375 C 143.3125 289.15625 148.28125 280.714844 153.558594 276.027344 C 111.972656 271.652344 68.222656 255.398438 68.222656 182.878906 C 68.222656 162.25 75.667969 145.371094 87.460938 132.246094 C 85.597656 127.558594 79.082031 108.175781 89.324219 82.234375 C 89.324219 82.234375 105.148438 77.230469 140.832031 101.613281 C 156.175781 97.460938 171.792969 95.378906 187.691406 95.359375 C 203.515625 95.359375 219.648438 97.550781 234.542969 101.613281 C 270.230469 77.230469 286.054688 82.234375 286.054688 82.234375 C 296.296875 108.175781 289.777344 127.558594 287.917969 132.246094 C 300.019531 145.371094 307.15625 162.25 307.15625 182.878906 C 307.15625 255.398438 263.40625 271.335938 221.511719 276.027344 C 228.339844 281.964844 234.234375 293.21875 234.234375 311.035156 C 234.234375 336.351562 233.925781 356.671875 233.925781 362.917969 C 233.925781 367.921875 237.339844 373.863281 246.648438 371.988281 C 321.121094 346.976562 374.804688 276.339844 374.804688 192.882812 C 375.109375 88.480469 291.019531 4.089844 187.691406 4.089844 Z M 187.691406 4.089844 " fill-opacity="1" fill-rule="evenodd"/></g><g clip-path="url(#6514eb48bd)"><g clip-path="url(#a7459d76a2)"><path fill="#24292f" d="M 211.320312 158.335938 L 255.511719 158.335938 L 255.511719 202.523438 L 211.320312 202.523438 Z M 211.320312 158.335938 " fill-opacity="1" fill-rule="nonzero"/></g></g><g clip-path="url(#bc76ccf402)"><g clip-path="url(#94a9af80f3)"><path fill="#24292f" d="M 117.890625 158.335938 L 162.082031 158.335938 L 162.082031 202.523438 L 117.890625 202.523438 Z M 117.890625 158.335938 " fill-opacity="1" fill-rule="nonzero"/></g></g></svg>